<svg xmlns="http://www.w3.org/2000/svg" enable-background="new 0 0 64 64" viewBox="0 0 64 64"><path fill="#191717" d="M63.4,36.8h-0.3l-7.4-17.1c0.6-0.5,0.9-1.1,0.9-1.8c0-1.3-1.1-2.4-2.4-2.4c-0.5,0-0.9,0.1-1.4,0.4
		c-4.4-2.2-8.2-3.3-11.3-3.3c-1.5,0-2.8,0.3-4,0.7c-0.7,0.3-1.4,0.7-2,1.2c-0.6-0.7-1.4-1.1-2.2-1.4l-0.1-6.6c0-0.7-0.6-1.3-1.3-1.3
		c-0.7,0-1.3,0.6-1.3,1.3l-0.1,6.6c-0.9,0.2-1.6,0.7-2.2,1.4c-0.6-0.5-1.2-0.9-2-1.2c-1.2-0.5-2.5-0.7-4-0.7
		c-3.1,0-6.9,1.1-11.3,3.3c-0.4-0.3-0.9-0.4-1.4-0.4c-1.3,0-2.4,1.1-2.4,2.4c0,0.7,0.3,1.4,0.9,1.8L0.9,36.8H0.6
		C0.3,36.8,0,37,0,37.4c0,5.4,4.4,9.8,9.8,9.8c5.4,0,9.8-4.4,9.8-9.8c0-0.3-0.3-0.6-0.6-0.6h-0.3l-7.4-17.1c0.4-0.4,0.7-0.9,0.8-1.4
		c4.1-2.1,7.6-3.2,10.4-3.2c1.1,0,2.1,0.2,2.9,0.5c0.7,0.3,1.3,0.7,1.8,1.2c-0.1,0.3-0.1,0.7-0.1,1c0,2.1,1.4,4,3.4,4.7L30,50.9
		c-2.5,0.7-4.4,2.7-4.8,5h-5.2c-1.6,0-2.9,1.3-2.9,2.9v0.1H47v-0.1c0-1.6-1.3-2.9-2.9-2.9h-5.2c-0.4-2.4-2.3-4.3-4.8-5l-0.5-28.4
		c2-0.7,3.4-2.5,3.4-4.7c0-0.3,0-0.6-0.1-1c0.5-0.5,1.1-1,1.8-1.2c0.8-0.3,1.8-0.5,2.9-0.5c2.8,0,6.2,1.1,10.3,3.1
		c0.1,0.6,0.4,1.1,0.8,1.5l-7.4,17.1H45c-0.3,0-0.6,0.3-0.6,0.6c0,5.4,4.4,9.8,9.8,9.8c5.4,0,9.8-4.4,9.8-9.8
		C64,37,63.7,36.8,63.4,36.8z M17.2,36.8H2.4l7.2-16.6c0.1,0,0.2,0,0.3,0c0.1,0,0.2,0,0.3,0L17.2,36.8z M46.8,36.8l7.2-16.6
		c0.1,0,0.2,0,0.3,0c0.1,0,0.2,0,0.3,0l7.2,16.6H46.8z"/></svg>